<svg xmlns="http://www.w3.org/2000/svg" viewBox="0 0 120 120" fill="none">
  <defs>
    <linearGradient id="ac1" x1="0%" y1="0%" x2="100%" y2="100%">
      <stop offset="0%" style="stop-color:#ec4899"/>
      <stop offset="100%" style="stop-color:#8b5cf6"/>
    </linearGradient>
  </defs>
  <!-- Person silhouette 1 -->
  <circle cx="42" cy="35" r="12" fill="url(#ac1)" opacity="0.9"/>
  <path d="M22 75 C22 58 32 50 42 50 C52 50 62 58 62 75" fill="url(#ac1)" opacity="0.9"/>
  <!-- AI clone (person 2 - mirrored) -->
  <circle cx="78" cy="35" r="12" fill="url(#ac1)" opacity="0.45"/>
  <path d="M58 75 C58 58 68 50 78 50 C88 50 98 58 98 75" fill="url(#ac1)" opacity="0.45"/>
  <!-- Clone arrow -->
  <path d="M52 42 L68 42" stroke="white" stroke-width="2.5" stroke-dasharray="4 3" opacity="0.8"/>
  <polygon points="66,38 72,42 66,46" fill="white" opacity="0.8"/>
  <!-- AI badge on clone -->
  <rect x="68" y="55" width="20" height="12" rx="6" fill="white" opacity="0.7"/>
  <text x="78" y="64" text-anchor="middle" fill="#8b5cf6" font-size="8" font-weight="bold" font-family="sans-serif">AI</text>
  <!-- Circuit dots -->
  <circle cx="15" cy="20" r="3" fill="#ec4899" opacity="0.25"/>
  <circle cx="105" cy="85" r="4" fill="#8b5cf6" opacity="0.2"/>
  <circle cx="20" cy="95" r="3.5" fill="#ec4899" opacity="0.2"/>
  <circle cx="100" cy="20" r="2.5" fill="#8b5cf6" opacity="0.15"/>
  <!-- Sparkles -->
  <path d="M85 18 L87 14 L89 18 L93 20 L89 22 L87 26 L85 22 L81 20 Z" fill="white" opacity="0.5"/>
  <path d="M15 55 L16.5 52 L18 55 L21 56.5 L18 58 L16.5 61 L15 58 L12 56.5 Z" fill="white" opacity="0.35"/>
  <!-- Video frame -->
  <rect x="30" y="82" width="60" height="30" rx="5" fill="url(#ac1)" opacity="0.25"/>
  <rect x="34" y="86" width="52" height="22" rx="3" fill="white" opacity="0.15"/>
  <polygon points="55,92 55,104 65,98" fill="white" opacity="0.5"/>
</svg>
