<svg xmlns="http://www.w3.org/2000/svg" viewBox="0 0 120 120" fill="none">
  <defs>
    <linearGradient id="fg1" x1="0%" y1="0%" x2="100%" y2="100%">
      <stop offset="0%" style="stop-color:#3b82f6"/>
      <stop offset="100%" style="stop-color:#8b5cf6"/>
    </linearGradient>
  </defs>
  <rect x="30" y="15" width="60" height="90" rx="12" fill="url(#fg1)" opacity="0.9"/>
  <rect x="35" y="30" width="50" height="55" rx="4" fill="white" opacity="0.25"/>
  <circle cx="60" cy="23" r="3" fill="white" opacity="0.5"/>
  <rect x="48" y="95" width="24" height="4" rx="2" fill="white" opacity="0.4"/>
  <!-- Like icon -->
  <circle cx="50" cy="52" r="8" fill="white" opacity="0.4"/>
  <path d="M47,54 L50,50 L53,54 L50,52 Z" fill="white" opacity="0.6"/>
  <!-- Chart bars -->
  <rect x="42" y="68" width="6" height="10" rx="1" fill="white" opacity="0.5"/>
  <rect x="51" y="63" width="6" height="15" rx="1" fill="white" opacity="0.6"/>
  <rect x="60" y="58" width="6" height="20" rx="1" fill="white" opacity="0.7"/>
  <rect x="69" y="53" width="6" height="25" rx="1" fill="white" opacity="0.8"/>
  <!-- Decorations -->
  <circle cx="15" cy="50" r="8" fill="#3b82f6" opacity="0.2"/>
  <circle cx="105" cy="70" r="10" fill="#8b5cf6" opacity="0.2"/>
  <circle cx="100" cy="25" r="5" fill="#3b82f6" opacity="0.15"/>
</svg>
