<svg xmlns="http://www.w3.org/2000/svg" viewBox="0 0 120 90" fill="none">
  <!-- Product box -->
  <rect x="15" y="30" width="35" height="40" rx="4" fill="white" opacity="0.35"/>
  <rect x="20" y="35" width="25" height="20" rx="2" fill="white" opacity="0.15"/>
  <!-- Stars -->
  <path d="M22 62 L23.5 59 L25 62 L28 62.5 L25.5 64.5 L26.5 67.5 L23.5 65.5 L20.5 67.5 L21.5 64.5 L19 62.5Z" fill="#fbbf24" opacity="0.9"/>
  <path d="M31 62 L32.5 59 L34 62 L37 62.5 L34.5 64.5 L35.5 67.5 L32.5 65.5 L29.5 67.5 L30.5 64.5 L28 62.5Z" fill="#fbbf24" opacity="0.9"/>
  <path d="M40 62 L41.5 59 L43 62 L46 62.5 L43.5 64.5 L44.5 67.5 L41.5 65.5 L38.5 67.5 L39.5 64.5 L37 62.5Z" fill="#fbbf24" opacity="0.9"/>
  <!-- Camera -->
  <rect x="65" y="25" width="40" height="30" rx="5" fill="white" opacity="0.4"/>
  <circle cx="85" cy="40" r="10" fill="white" opacity="0.25"/>
  <circle cx="85" cy="40" r="6" fill="white" opacity="0.5"/>
  <!-- Script lines -->
  <rect x="65" y="62" width="35" height="2.5" rx="1" fill="white" opacity="0.4"/>
  <rect x="65" y="68" width="25" height="2.5" rx="1" fill="white" opacity="0.3"/>
  <!-- Subtitle badge -->
  <rect x="68" y="74" width="18" height="8" rx="4" fill="white" opacity="0.5"/>
  <text x="77" y="80" text-anchor="middle" fill="#7c3aed" font-size="6" font-weight="bold" font-family="sans-serif">SUB</text>
</svg>
