<svg xmlns="http://www.w3.org/2000/svg" viewBox="0 0 120 90" fill="none">
  <!-- Phone frame -->
  <rect x="38" y="5" width="44" height="80" rx="8" fill="white" opacity="0.35"/>
  <rect x="42" y="15" width="36" height="55" rx="3" fill="white" opacity="0.15"/>
  <!-- Play icon -->
  <polygon points="55,35 55,50 67,42.5" fill="white" opacity="0.9"/>
  <!-- Music notes -->
  <circle cx="25" cy="25" r="5" fill="white" opacity="0.5"/>
  <rect x="29" y="12" width="2" height="14" rx="1" fill="white" opacity="0.5"/>
  <circle cx="95" cy="35" r="4" fill="white" opacity="0.4"/>
  <rect x="98" y="24" width="2" height="12" rx="1" fill="white" opacity="0.4"/>
  <!-- Timer badge -->
  <rect x="45" y="58" width="30" height="10" rx="5" fill="white" opacity="0.6"/>
  <text x="60" y="66" text-anchor="middle" fill="#7c3aed" font-size="7" font-weight="bold" font-family="sans-serif">60s</text>
  <!-- Hearts -->
  <path d="M88 55 C88 52 92 50 94 53 C96 50 100 52 100 55 C100 59 94 63 94 63 C94 63 88 59 88 55Z" fill="white" opacity="0.45"/>
  <path d="M18 50 C18 48 20 47 21 48.5 C22 47 24 48 24 50 C24 52 21 54 21 54 C21 54 18 52 18 50Z" fill="white" opacity="0.3"/>
</svg>
