<svg xmlns="http://www.w3.org/2000/svg" viewBox="0 0 120 90" fill="none">
  <!-- Person sending script -->
  <circle cx="30" cy="28" r="10" fill="white" opacity="0.4"/>
  <path d="M18 55 C18 43 24 38 30 38 C36 38 42 43 42 55" fill="white" opacity="0.4"/>
  <!-- Arrow -->
  <path d="M45 40 L65 40" stroke="white" stroke-width="2.5" stroke-dasharray="5 3" opacity="0.6"/>
  <polygon points="63,36 70,40 63,44" fill="white" opacity="0.6"/>
  <!-- AI Clone output -->
  <rect x="72" y="15" width="35" height="55" rx="5" fill="white" opacity="0.3"/>
  <circle cx="89" cy="30" r="8" fill="white" opacity="0.3"/>
  <rect x="82" y="42" width="14" height="2" rx="1" fill="white" opacity="0.4"/>
  <rect x="79" y="48" width="20" height="2" rx="1" fill="white" opacity="0.3"/>
  <rect x="81" y="54" width="16" height="2" rx="1" fill="white" opacity="0.3"/>
  <!-- AI badge -->
  <rect x="80" y="62" width="18" height="10" rx="5" fill="white" opacity="0.6"/>
  <text x="89" y="70" text-anchor="middle" fill="#7c3aed" font-size="7" font-weight="bold" font-family="sans-serif">AI</text>
  <!-- 5 clips badge -->
  <rect x="15" y="62" width="30" height="14" rx="7" fill="white" opacity="0.45"/>
  <text x="30" y="72" text-anchor="middle" fill="#7c3aed" font-size="7" font-weight="bold" font-family="sans-serif">5 clips</text>
  <!-- Sparkles -->
  <path d="M55 15 L57 11 L59 15 L63 17 L59 19 L57 23 L55 19 L51 17Z" fill="white" opacity="0.4"/>
</svg>
