<svg xmlns="http://www.w3.org/2000/svg" viewBox="0 0 120 90" fill="none">
  <!-- Book/Course -->
  <rect x="20" y="20" width="45" height="55" rx="4" fill="white" opacity="0.35"/>
  <rect x="25" y="28" width="35" height="3" rx="1.5" fill="white" opacity="0.5"/>
  <rect x="25" y="35" width="28" height="2" rx="1" fill="white" opacity="0.3"/>
  <rect x="25" y="41" width="32" height="2" rx="1" fill="white" opacity="0.3"/>
  <rect x="25" y="47" width="20" height="2" rx="1" fill="white" opacity="0.3"/>
  <!-- AI brain -->
  <circle cx="85" cy="35" r="18" fill="white" opacity="0.25"/>
  <circle cx="85" cy="35" r="12" fill="white" opacity="0.15"/>
  <path d="M78 35 C78 30 82 27 85 27 C88 27 92 30 92 35 C92 40 88 43 85 43 C82 43 78 40 78 35" stroke="white" stroke-width="2" fill="none" opacity="0.6"/>
  <!-- Neural connections -->
  <circle cx="79" cy="32" r="2" fill="white" opacity="0.7"/>
  <circle cx="91" cy="32" r="2" fill="white" opacity="0.7"/>
  <circle cx="85" cy="28" r="2" fill="white" opacity="0.7"/>
  <circle cx="85" cy="42" r="2" fill="white" opacity="0.7"/>
  <line x1="79" y1="32" x2="85" y2="28" stroke="white" stroke-width="1" opacity="0.5"/>
  <line x1="91" y1="32" x2="85" y2="28" stroke="white" stroke-width="1" opacity="0.5"/>
  <line x1="79" y1="32" x2="85" y2="42" stroke="white" stroke-width="1" opacity="0.5"/>
  <line x1="91" y1="32" x2="85" y2="42" stroke="white" stroke-width="1" opacity="0.5"/>
  <!-- Price tag -->
  <rect x="70" y="60" width="35" height="14" rx="7" fill="white" opacity="0.5"/>
  <text x="87" y="70" text-anchor="middle" fill="#7c3aed" font-size="8" font-weight="bold" font-family="sans-serif">990.-</text>
  <!-- Checkmarks -->
  <path d="M28 55 L31 58 L36 52" stroke="white" stroke-width="2" fill="none" opacity="0.6" stroke-linecap="round"/>
  <path d="M28 62 L31 65 L36 59" stroke="white" stroke-width="2" fill="none" opacity="0.5" stroke-linecap="round"/>
</svg>
