<svg xmlns="http://www.w3.org/2000/svg" viewBox="0 0 120 90" fill="none">
  <!-- Megaphone -->
  <path d="M25 35 L55 25 L55 60 L25 50 Z" fill="white" opacity="0.5"/>
  <rect x="15" y="37" width="12" height="12" rx="3" fill="white" opacity="0.4"/>
  <ellipse cx="55" cy="42.5" rx="5" ry="18" fill="white" opacity="0.3"/>
  <!-- Sound waves -->
  <path d="M62 32 C68 36 68 49 62 53" stroke="white" stroke-width="2.5" fill="none" opacity="0.5"/>
  <path d="M68 26 C78 33 78 52 68 59" stroke="white" stroke-width="2.5" fill="none" opacity="0.35"/>
  <path d="M74 20 C87 30 87 55 74 65" stroke="white" stroke-width="2.5" fill="none" opacity="0.2"/>
  <!-- Storyboard frames -->
  <rect x="80" y="15" width="15" height="12" rx="2" fill="white" opacity="0.35"/>
  <rect x="98" y="15" width="15" height="12" rx="2" fill="white" opacity="0.35"/>
  <rect x="80" y="30" width="15" height="12" rx="2" fill="white" opacity="0.25"/>
  <rect x="98" y="30" width="15" height="12" rx="2" fill="white" opacity="0.25"/>
  <!-- Graph arrow up -->
  <path d="M85 75 L95 60 L105 65 L110 50" stroke="white" stroke-width="2.5" fill="none" opacity="0.5" stroke-linecap="round"/>
  <polygon points="108,46 114,50 108,54" fill="white" opacity="0.5"/>
</svg>
