<svg xmlns="http://www.w3.org/2000/svg" viewBox="0 0 120 90" fill="none">
  <!-- Tablet/Screen -->
  <rect x="15" y="5" width="90" height="60" rx="8" fill="#1e293b"/>
  <rect x="20" y="12" width="80" height="46" rx="4" fill="#334155"/>
  <!-- Content grid -->
  <rect x="24" y="16" width="23" height="18" rx="3" fill="#8b5cf6"/>
  <rect x="50" y="16" width="23" height="18" rx="3" fill="#ec4899"/>
  <rect x="76" y="16" width="20" height="18" rx="3" fill="#06b6d4"/>
  <rect x="24" y="38" width="23" height="16" rx="3" fill="#f59e0b"/>
  <rect x="50" y="38" width="23" height="16" rx="3" fill="#10b981"/>
  <rect x="76" y="38" width="20" height="16" rx="3" fill="#3b82f6"/>
  <!-- M badge -->
  <circle cx="100" cy="10" r="11" fill="#8b5cf6"/>
  <text x="100" y="15" text-anchor="middle" fill="white" font-size="13" font-weight="bold" font-family="sans-serif">M</text>
  <!-- Stats -->
  <rect x="10" y="70" width="30" height="16" rx="5" fill="#06b6d4"/>
  <text x="25" y="81" text-anchor="middle" fill="white" font-size="8" font-weight="bold" font-family="sans-serif">10</text>
  <text x="25" y="85" text-anchor="middle" fill="white" font-size="4" font-family="sans-serif">โพสต์/ด.</text>
  <rect x="45" y="70" width="30" height="16" rx="5" fill="#f59e0b"/>
  <text x="60" y="81" text-anchor="middle" fill="white" font-size="8" font-weight="bold" font-family="sans-serif">1</text>
  <text x="60" y="85" text-anchor="middle" fill="white" font-size="4" font-family="sans-serif">แคมเปญ</text>
  <rect x="80" y="70" width="30" height="16" rx="5" fill="#10b981"/>
  <text x="95" y="81" text-anchor="middle" fill="white" font-size="8" font-weight="bold" font-family="sans-serif">CI</text>
  <text x="95" y="85" text-anchor="middle" fill="white" font-size="4" font-family="sans-serif">แบรนด์</text>
</svg>
