<svg xmlns="http://www.w3.org/2000/svg" viewBox="0 0 120 90" fill="none">
  <!-- Book -->
  <rect x="15" y="15" width="48" height="60" rx="5" fill="#7c3aed"/>
  <rect x="19" y="15" width="44" height="60" rx="4" fill="#8b5cf6"/>
  <rect x="24" y="22" width="30" height="4" rx="2" fill="#fbbf24"/>
  <rect x="24" y="30" width="34" height="2" rx="1" fill="#c4b5fd"/>
  <rect x="24" y="36" width="28" height="2" rx="1" fill="#c4b5fd"/>
  <!-- Checkmarks -->
  <circle cx="27" cy="48" r="4" fill="#10b981"/>
  <path d="M25 48 L26.5 50 L30 46" stroke="white" stroke-width="1.5" fill="none" stroke-linecap="round"/>
  <circle cx="27" cy="58" r="4" fill="#10b981"/>
  <path d="M25 58 L26.5 60 L30 56" stroke="white" stroke-width="1.5" fill="none" stroke-linecap="round"/>
  <circle cx="27" cy="68" r="4" fill="#10b981"/>
  <path d="M25 68 L26.5 70 L30 66" stroke="white" stroke-width="1.5" fill="none" stroke-linecap="round"/>
  <rect x="34" y="46" width="20" height="2" rx="1" fill="#ddd6fe"/>
  <rect x="34" y="56" width="18" height="2" rx="1" fill="#ddd6fe"/>
  <rect x="34" y="66" width="22" height="2" rx="1" fill="#ddd6fe"/>
  <!-- AI brain -->
  <circle cx="85" cy="35" r="22" fill="#ec4899" opacity="0.2"/>
  <circle cx="85" cy="35" r="15" fill="#ec4899" opacity="0.3"/>
  <!-- Neural network -->
  <circle cx="78" cy="28" r="4" fill="#f43f5e"/>
  <circle cx="92" cy="28" r="4" fill="#8b5cf6"/>
  <circle cx="85" cy="20" r="4" fill="#f59e0b"/>
  <circle cx="85" cy="45" r="4" fill="#06b6d4"/>
  <circle cx="76" cy="40" r="3" fill="#ec4899"/>
  <circle cx="94" cy="40" r="3" fill="#10b981"/>
  <line x1="78" y1="28" x2="85" y2="20" stroke="#c084fc" stroke-width="1.5"/>
  <line x1="92" y1="28" x2="85" y2="20" stroke="#c084fc" stroke-width="1.5"/>
  <line x1="78" y1="28" x2="85" y2="45" stroke="#c084fc" stroke-width="1"/>
  <line x1="92" y1="28" x2="85" y2="45" stroke="#c084fc" stroke-width="1"/>
  <line x1="76" y1="40" x2="85" y2="45" stroke="#c084fc" stroke-width="1"/>
  <line x1="94" y1="40" x2="85" y2="45" stroke="#c084fc" stroke-width="1"/>
  <!-- Price -->
  <rect x="70" y="62" width="38" height="16" rx="8" fill="#f43f5e"/>
  <text x="89" y="73" text-anchor="middle" fill="white" font-size="9" font-weight="bold" font-family="sans-serif">990.-</text>
</svg>
