<svg xmlns="http://www.w3.org/2000/svg" viewBox="0 0 120 90" fill="none">
  <!-- Product box -->
  <rect x="12" y="25" width="38" height="45" rx="6" fill="#8b5cf6"/>
  <rect x="16" y="30" width="30" height="25" rx="3" fill="#a78bfa"/>
  <rect x="22" y="35" width="18" height="15" rx="2" fill="#c4b5fd"/>
  <!-- Stars -->
  <path d="M18 62 L20 57 L22 62 L27 63 L23 66 L24 71 L20 68 L16 71 L17 66 L13 63Z" fill="#fbbf24"/>
  <path d="M30 62 L32 57 L34 62 L39 63 L35 66 L36 71 L32 68 L28 71 L29 66 L25 63Z" fill="#fbbf24"/>
  <path d="M42 62 L44 57 L46 62 L51 63 L47 66 L48 71 L44 68 L40 71 L41 66 L37 63Z" fill="#fbbf24"/>
  <!-- Camera -->
  <rect x="62" y="20" width="45" height="35" rx="6" fill="#1e293b"/>
  <rect x="66" y="24" width="37" height="27" rx="3" fill="#334155"/>
  <circle cx="85" cy="37" r="10" fill="#475569"/>
  <circle cx="85" cy="37" r="7" fill="#06b6d4"/>
  <circle cx="85" cy="37" r="3" fill="#22d3ee"/>
  <circle cx="100" cy="26" r="3" fill="#ef4444"/>
  <!-- Subtitle bar -->
  <rect x="60" y="62" width="50" height="14" rx="4" fill="#1e293b"/>
  <rect x="64" y="66" width="30" height="2.5" rx="1" fill="#22d3ee"/>
  <rect x="64" y="71" width="20" height="2" rx="1" fill="#94a3b8"/>
</svg>
