<svg xmlns="http://www.w3.org/2000/svg" viewBox="0 0 120 90" fill="none">
  <!-- Crown -->
  <path d="M30 18 L42 32 L55 12 L68 32 L80 18 L76 42 L34 42Z" fill="#fbbf24"/>
  <circle cx="30" cy="16" r="4" fill="#f59e0b"/>
  <circle cx="55" cy="10" r="4" fill="#f59e0b"/>
  <circle cx="80" cy="16" r="4" fill="#f59e0b"/>
  <!-- VIP badge -->
  <rect x="35" y="45" width="40" height="16" rx="8" fill="#7c3aed"/>
  <text x="55" y="57" text-anchor="middle" fill="white" font-size="12" font-weight="bold" font-family="sans-serif">VIP</text>
  <!-- Calendar -->
  <rect x="68" y="55" width="38" height="30" rx="5" fill="#1e293b"/>
  <rect x="68" y="55" width="38" height="10" rx="5" fill="#ef4444"/>
  <!-- Calendar dots -->
  <rect x="72" y="70" width="6" height="5" rx="1.5" fill="#10b981"/>
  <rect x="81" y="70" width="6" height="5" rx="1.5" fill="#06b6d4"/>
  <rect x="90" y="70" width="6" height="5" rx="1.5" fill="#8b5cf6"/>
  <rect x="72" y="78" width="6" height="5" rx="1.5" fill="#f59e0b"/>
  <rect x="81" y="78" width="6" height="5" rx="1.5" fill="#ec4899"/>
  <rect x="90" y="78" width="6" height="5" rx="1.5" fill="#10b981"/>
  <!-- 15 clips -->
  <circle cx="30" cy="72" r="14" fill="#ec4899"/>
  <text x="30" y="76" text-anchor="middle" fill="white" font-size="11" font-weight="bold" font-family="sans-serif">15</text>
  <!-- Sparkles -->
  <path d="M12 12 L14 7 L16 12 L21 14 L16 16 L14 21 L12 16 L7 14Z" fill="#06b6d4"/>
  <path d="M100 8 L102 4 L104 8 L108 10 L104 12 L102 16 L100 12 L96 10Z" fill="#f43f5e"/>
</svg>
